<region> lovel=1 hivel=7 amp_velcurve_7=1 sample=../samples/cymbals/cy9splash/brs/ord/cy9splash_brs_ord_001.wav
<region> lovel=8 hivel=15 amp_velcurve_15=1 sample=../samples/cymbals/cy9splash/brs/ord/cy9splash_brs_ord_002.wav
<region> lovel=16 hivel=23 amp_velcurve_23=1 sample=../samples/cymbals/cy9splash/brs/ord/cy9splash_brs_ord_003.wav
<region> lovel=24 hivel=31 amp_velcurve_31=1 sample=../samples/cymbals/cy9splash/brs/ord/cy9splash_brs_ord_004.wav
<region> lovel=32 hivel=39 amp_velcurve_39=1 sample=../samples/cymbals/cy9splash/brs/ord/cy9splash_brs_ord_005.wav
<region> lovel=40 hivel=47 amp_velcurve_47=1 sample=../samples/cymbals/cy9splash/brs/ord/cy9splash_brs_ord_006.wav
<region> lovel=48 hivel=55 amp_velcurve_55=1 sample=../samples/cymbals/cy9splash/brs/ord/cy9splash_brs_ord_007.wav
<region> lovel=56 hivel=63 amp_velcurve_63=1 sample=../samples/cymbals/cy9splash/brs/ord/cy9splash_brs_ord_008.wav
<region> lovel=64 hivel=71 amp_velcurve_71=1 sample=../samples/cymbals/cy9splash/brs/ord/cy9splash_brs_ord_009.wav
<region> lovel=72 hivel=79 amp_velcurve_79=1 sample=../samples/cymbals/cy9splash/brs/ord/cy9splash_brs_ord_010.wav
<region> lovel=80 hivel=87 amp_velcurve_87=1 sample=../samples/cymbals/cy9splash/brs/ord/cy9splash_brs_ord_011.wav
<region> lovel=88 hivel=95 amp_velcurve_95=1 sample=../samples/cymbals/cy9splash/brs/ord/cy9splash_brs_ord_012.wav
<region> lovel=96 hivel=103 amp_velcurve_103=1 sample=../samples/cymbals/cy9splash/brs/ord/cy9splash_brs_ord_013.wav
<region> lovel=104 hivel=111 amp_velcurve_111=1 sample=../samples/cymbals/cy9splash/brs/ord/cy9splash_brs_ord_014.wav
<region> lovel=112 hivel=119 amp_velcurve_119=1 sample=../samples/cymbals/cy9splash/brs/ord/cy9splash_brs_ord_015.wav
<region> lovel=120 hivel=127 amp_velcurve_127=1 sample=../samples/cymbals/cy9splash/brs/ord/cy9splash_brs_ord_016.wav
